<?xml version="1.0" encoding="UTF-8"?>
<svg id="_레이어_2" data-name="레이어 2" xmlns="http://www.w3.org/2000/svg" viewBox="0 0 194.68 131.37">
  <defs>
    <style>
      .cls-1 {
        letter-spacing: -.04em;
      }

      .cls-1, .cls-2, .cls-3 {
        fill: #43b4e9;
      }

      .cls-4 {
        fill: #153565;
      }

      .cls-2 {
        letter-spacing: -.02em;
      }

      .cls-5 {
        font-family: Swiss721BT-BlackExtended, 'Swis721 BlkEx BT';
        font-size: 33.65px;
        font-weight: 800;
      }
    </style>
  </defs>
  <g id="_레이어_1-2" data-name="레이어 1">
    <g>
      <path class="cls-4" d="m21.08,58.45h0c0-19.78,15.68-35.81,35.03-35.81h67.74C113.39,8.87,103.08,0,84.7,0h-27.52C25.6,0,0,26.17,0,58.45h0c0,16.67,6.84,31.71,17.8,42.35l-1.11,23.9c-.2,4.36,3.89,7.68,7.97,6.37.07-.02.13-.04.2-.07,3.42-1.16,11.09-8.81,17.78-16.03,4.65,1.25,9.52,1.92,14.55,1.92h27.52c18.38,0,29.87-8.87,40.33-22.65H56.11c-19.35,0-35.03-16.03-35.03-35.81Z"/>
      <path class="cls-3" d="m136.23,0h-27.13c8.58,5.86,17.38,13.61,22.58,22.65h5.65c19.78,0,35.81,16.03,35.81,35.81h0c0,19.78-16.03,35.81-35.81,35.81h-5.48c-5.97,9.32-14.12,17.1-23.73,22.65h28.12c5.14,0,10.12-.67,14.87-1.92,6.83,7.21,14.67,14.87,18.17,16.03.07.02.14.04.2.07,4.17,1.31,8.35-2.01,8.14-6.37l-1.13-23.9c11.2-10.65,18.19-25.68,18.19-42.35h0c0-32.28-26.17-58.45-58.45-58.45Z"/>
      <text class="cls-5" transform="translate(28.32 70.9) scale(.63 1)"><tspan class="cls-2" x="0" y="0">D</tspan><tspan class="cls-1" x="34.44" y="0">AY</tspan><tspan class="cls-3" x="90.45" y="0">A</tspan><tspan class="cls-4" x="120.83" y="0">LOG</tspan></text>
    </g>
  </g>
</svg>