<?xml version="1.0" encoding="utf-8"?>
<!-- Generator: Adobe Illustrator 24.0.1, SVG Export Plug-In . SVG Version: 6.00 Build 0)  -->
<svg version="1.1" id="Layer_1" xmlns="http://www.w3.org/2000/svg" xmlns:xlink="http://www.w3.org/1999/xlink" x="0px" y="0px"
	 viewBox="0 0 198.9 198.9" style="enable-background:new 0 0 198.9 198.9;" xml:space="preserve">
<style type="text/css">
	.st0{fill:#153565;}
	.st1{fill:#43B4E9;}
</style>
<title>Asset 2</title>
<g id="Layer_2_1_">
	<g id="레이어_1">
		<path class="st0" d="M66.6,36.3h-8.1C26.2,36.3,0,62.4,0,94.7c0,0,0,0,0,0l0,0c0,15.7,6.3,30.7,17.5,41.7l-0.2,0.1l0.5,0.5
			L16.7,161c-0.2,3.4,2.4,6.4,5.8,6.6c0.7,0,1.5,0,2.2-0.3l0.2-0.1c3.4-1.1,11.1-8.8,17.8-16c0.9,0.2,1.8,0.4,2.7,0.6l-0.2-0.3
			c4.4,1,8.8,1.5,13.3,1.5h8.1c32.3,0,58.4-26.2,58.4-58.5l0,0C125,62.4,98.8,36.3,66.6,36.3z"/>
		<path class="st1" d="M198.9,94.7c0-32.3-26.2-58.4-58.4-58.4h-8.1c-9.7,0-19.3,2.4-27.9,7c17.4,11.4,27.9,30.8,27.9,51.6l0,0
			c0,20.7-10.4,40-27.6,51.4c8.5,4.5,17.9,6.9,27.6,6.9h8.1c4.5,0,8.9-0.5,13.3-1.5l-0.1,0.3c0.9-0.2,1.8-0.4,2.7-0.6
			c6.7,7.2,14.4,14.9,17.8,16l0.2,0.1c3.3,1,6.8-0.9,7.7-4.2c0.2-0.7,0.3-1.5,0.3-2.2l-1.1-23.9l0.5-0.5l-0.2-0.1
			C192.7,125.4,199,110.4,198.9,94.7L198.9,94.7z"/>
	</g>
</g>
</svg>
