<svg xmlns="http://www.w3.org/2000/svg" viewBox="0 0 198.93 131.37"><defs><style>.cls-1{fill:#153565;}.cls-2{fill:#43b4e9;}</style></defs><title>Asset 2</title><g id="Layer_2" data-name="Layer 2"><g id="레이어_1" data-name="레이어 1"><path class="cls-1" d="M66.58,0H58.45A58.45,58.45,0,0,0,0,58.45H0a58.29,58.29,0,0,0,17.53,41.73l-.23.11.5.52-1.11,23.9a6.22,6.22,0,0,0,8,6.37l.2-.07c3.42-1.15,11.09-8.81,17.77-16,.88.23,1.77.44,2.67.64l-.15-.27a58.25,58.25,0,0,0,13.3,1.54h8.13A58.45,58.45,0,0,0,125,58.45h0A58.45,58.45,0,0,0,66.58,0Z"/><path class="cls-2" d="M198.93,58.45A58.45,58.45,0,0,0,140.48,0h-8.13a58.16,58.16,0,0,0-27.86,7.05A61.57,61.57,0,0,1,132.4,58.62h0A61.54,61.54,0,0,1,104.79,110a58.16,58.16,0,0,0,27.56,6.9h8.13a58.39,58.39,0,0,0,13.3-1.54l-.15.27c.89-.2,1.78-.41,2.67-.64,6.68,7.21,14.35,14.87,17.77,16l.2.07a6.22,6.22,0,0,0,8-6.37l-1.11-23.9.5-.52-.23-.11a58.29,58.29,0,0,0,17.53-41.73Z"/></g></g></svg>